<?xml version="1.0" encoding="UTF-8"?>
<svg id="Layer_1" xmlns="http://www.w3.org/2000/svg" viewBox="0 0 1000 300">
  <defs>
    <style>
      .cls-1 {
        fill: #7ff86c;
      }

      .cls-2 {
        fill: #252323;
      }
    </style>
  </defs>
  <g>
    <path class="cls-2" d="M124,236.26v-74.26c0-18.08-6.27-26.52-20.98-26.52-16.15,0-22.9,8.92-22.9,27v73.78h-40.02V102.45h37.37v14.23h.48c8.44-13.74,20.25-18.81,36.41-18.81,24.11,0,49.67,13.5,49.67,53.04v85.35h-40.02Z"/>
    <path class="cls-2" d="M258.29,240.36c-40.75,0-72.09-30.14-72.09-71.13s32.07-71.13,72.09-71.13,72.09,30.14,72.09,70.64-31.83,71.61-72.09,71.61ZM290.36,169.23c0-17.84-13.5-33.75-32.31-33.75-17.6,0-31.83,15.43-31.83,33.75s13.98,33.75,32.07,33.75,32.07-15.91,32.07-33.75Z"/>
    <path class="cls-2" d="M350.63,236.26V57.84h40.02v178.42h-40.02Z"/>
    <path class="cls-2" d="M419.58,88.22v-30.38h40.02v30.38h-40.02ZM419.58,236.26V102.45h40.02v133.81h-40.02Z"/>
    <path class="cls-2" d="M653.93,236.26v-72.09c0-20.98-6.75-28.69-20.49-28.69-15.19,0-22.18,9.16-22.18,26.76v74.02h-40.02v-73.78c0-17.36-6.27-27-20.01-27-15.67,0-22.66,10.13-22.66,28.69v72.09h-40.02V102.45h37.37v14.23h.48c6.99-12.54,19.77-18.81,36.89-18.81s30.13,8.68,38.57,23.86c0,0,0,0,0,0,9.64-15.18,24.11-23.86,42.43-23.86,29.9,0,49.67,18.32,49.67,55.69v82.7h-40.02Z"/>
    <path class="cls-2" d="M722.16,88.22v-30.38h40.02v30.38h-40.02ZM722.16,236.26V102.45h40.02v133.81h-40.02Z"/>
    <path class="cls-2" d="M800.28,236.26v-103.43s-19.77,0-19.77,0v-30.38h19.77v-44.6h40.02v44.6h19.29v30.38h-19.29v103.43h-40.02Z"/>
  </g>
  <polygon class="cls-1" points="947.05 57.57 887.62 57.57 887.62 87.9 925.6 87.9 887.62 125.88 909.07 147.33 947.05 109.35 947.05 147.33 977.38 147.33 977.38 87.9 977.38 57.57 947.05 57.57"/>
</svg>